<svg xmlns="http://www.w3.org/2000/svg" viewBox="0 0 24 24" fill="currentColor">
  <rect width="24" height="24" rx="4" fill="#1F2937"/>
  <path d="M15 2H9C7.9 2 7 2.9 7 4V20C7 21.1 7.9 22 9 22H15C16.1 22 17 21.1 17 20V4C17 2.9 16.1 2 15 2ZM15 18H9V6H15V18Z" fill="#0891b2"/>
  <path d="M22.7 19l-9.1-9.1c.9-2.3.4-5-1.5-6.9-2-2-5-2.4-7.4-1.3L9 6 6 9 1.6 4.7C.4 7.1.9 10.1 2.9 12.1c1.9 1.9 4.6 2.4 6.9 1.5l9.1 9.1c.4.4 1 .4 1.4 0l2.3-2.3c.5-.4.5-1.1.1-1.4z" fill="#E5E7EB" transform="scale(0.5) translate(18, -4)"/>
</svg>
